<?xml version="1.0" encoding="UTF-8"?>
<svg width="561.8px" height="105.8px" viewBox="0 0 561.8 105.8" version="1.1" xmlns="http://www.w3.org/2000/svg" xmlns:xlink="http://www.w3.org/1999/xlink">
    <title>编组</title>
    <g id="页面-1" stroke="none" stroke-width="1" fill="none" fill-rule="evenodd">
        <g id="编组">
            <g id="SwiftyUploader">
                <path d="M105.9,29.3 C105.9,28.2 105.9,27.2 105.9,26.1 C105.8,23.8 105.7,21.4 105.3,19.1 C104.9,16.8 104.2,14.6 103.1,12.5 C102,10.4 100.7,8.5 99,6.9 C97.3,5.2 95.4,3.9 93.4,2.8 C91.3,1.7 89.1,1 86.8,0.6 C84.5,0.2 82.2,0 79.8,0 C78.7,0 77.7,0 76.6,0 C75.3,0 74.1,0 72.8,0 L44.7,0 L33.1,0 C31.8,0 30.6,0 29.3,0 C28.2,0 27.2,0 26.1,0 C25.5,0 24.9,0 24.4,0.1 C22.7,0.2 20.9,0.3 19.2,0.6 C17.5,0.9 15.8,1.4 14.2,2 C13.7,2.2 13.1,2.5 12.6,2.7 C11,3.5 9.6,4.5 8.2,5.6 C7.8,6 7.3,6.4 6.9,6.8 C5.2,8.5 3.9,10.4 2.8,12.4 C1.7,14.5 1,16.7 0.6,19 C0.2,21.3 0.1,23.6 0,26 C0,27.1 0,28.1 0,29.2 C0,30.5 0,31.7 0,33 L0,50.3 L0,72.7 C0,74 0,75.2 0,76.5 C0,77.6 0,78.6 0,79.7 C0.1,82 0.2,84.4 0.6,86.7 C1,89 1.7,91.2 2.8,93.3 C3.9,95.4 5.2,97.3 6.9,98.9 C8.6,100.6 10.5,101.9 12.5,103 C14.6,104.1 16.8,104.8 19.1,105.2 C21.4,105.6 23.7,105.8 26.1,105.8 C27.2,105.8 28.2,105.8 29.3,105.8 C30.6,105.8 31.8,105.8 33.1,105.8 L72.8,105.8 C74.1,105.8 75.3,105.8 76.6,105.8 C77.7,105.8 78.7,105.8 79.8,105.8 C82.1,105.7 84.5,105.6 86.8,105.2 C89.1,104.8 91.3,104.1 93.4,103 C95.5,101.9 97.4,100.6 99,98.9 C100.7,97.2 102,95.3 103.1,93.3 C104.2,91.2 104.9,89 105.3,86.7 C105.7,84.4 105.9,82.1 105.9,79.7 C105.9,78.6 105.9,77.6 105.9,76.5 C105.9,75.2 105.9,74 105.9,72.7 L105.9,33 C105.9,31.8 105.9,30.6 105.9,29.3 Z" id="路径" fill="#F05138" fill-rule="nonzero"></path>
                <path d="M73.5939062,28.4235752 L81.274375,37.3424391 C81.5575781,37.5632871 81.7399609,37.9087161 81.7399609,38.2960497 C81.7399609,38.4115702 81.7241016,38.5225605 81.6935156,38.6290206 L81.8,76.7926973 C81.8,77.456374 81.2619141,77.9954698 80.5969531,77.9954698 L80.5969531,78 L25.0075781,78 C24.3403516,78 23.8,77.4597717 23.8,76.7926973 L23.8,38.2960497 C23.8,37.9562834 23.9404687,37.6493612 24.1658984,37.4296457 L32.0242187,28.4145148 C32.2621094,28.1438344 32.5951562,28.0045302 32.9304687,28.0045302 L32.9304687,28 L72.6751953,28 C73.0422266,28 73.371875,28.1642203 73.5939062,28.4235752 Z M27.8,37 L77.8,37 L72.0774958,30 L33.5935702,30 L27.8,37 Z M48.6600811,68 L57.9391421,68 C58.4765093,68 58.9146531,67.5466718 58.9146531,66.9969396 L58.9146531,58.2092578 L63.854641,58.2092578 C64.6239011,58.1736802 65.1713022,57.9131599 65.4868103,57.4196634 C66.3430303,56.0975516 65.2682959,54.6916603 64.3630216,53.8733741 L54.251153,44.7333588 C53.3915884,43.7555471 52.1652316,43.7555471 51.3056671,44.7333588 C50.1317092,46.1438409 44.192798,51.5883703 42.0054236,54.1224178 C41.248427,55.0015302 40.3097067,56.199694 41.0990345,57.4196634 C41.4156575,57.9131599 41.9619437,58.1736802 42.7323187,58.2092578 L47.685685,58.2092578 L47.685685,66.9969396 C47.685685,67.5478194 48.1238288,68 48.6600811,68 Z" id="形状" fill="#FFFFFF"></path>
            </g>
            <text id="SwiftyUploader" font-family="PingFangSC-Medium, PingFang SC" font-size="60" font-weight="400" fill="#000000">
                <tspan x="127.8" y="75">SwiftyUploader</tspan>
            </text>
        </g>
    </g>
</svg>